<svg width="48" height="48" viewBox="0 0 48 48" fill="none" xmlns="http://www.w3.org/2000/svg">
<path d="M34 9.03722C34 8.19621 34.5261 7.44504 35.3165 7.15763L41.3165 4.97581C42.6209 4.5015 44 5.46747 44 6.8554V38.9628C44 39.8038 43.4739 40.555 42.6835 40.8424L36.6835 43.0242C35.3791 43.4985 34 42.5325 34 41.1446V9.03722Z" fill="white"/>
<path d="M32 9.23282C32 8.29902 31.3538 7.4895 30.4432 7.28256L18.4432 4.55528C17.1917 4.27084 16 5.22211 16 6.50555V38.7672C16 39.701 16.6462 40.5105 17.5568 40.7174L29.5568 43.4447C30.8083 43.7292 32 42.7779 32 41.4945V9.23282Z" fill="white"/>
<path d="M4 9.03722C4 8.19621 4.52614 7.44504 5.31651 7.15763L11.3165 4.97581C12.6209 4.5015 14 5.46747 14 6.8554V38.9628C14 39.8038 13.4739 40.555 12.6835 40.8424L6.68349 43.0242C5.37912 43.4985 4 42.5325 4 41.1446V9.03722Z" fill="white"/>
</svg>
