<svg width="24" height="24" viewBox="0 0 24 24" fill="none" xmlns="http://www.w3.org/2000/svg">
<path d="M17 4.51861C17 4.0981 17.2631 3.72252 17.6583 3.57882L20.6583 2.48791C21.3104 2.25075 22 2.73374 22 3.4277V19.4814C22 19.9019 21.7369 20.2775 21.3417 20.4212L18.3417 21.5121C17.6896 21.7493 17 21.2663 17 20.5723V4.51861Z" fill="white"/>
<path d="M16 4.61641C16 4.14951 15.6769 3.74475 15.2216 3.64128L9.22162 2.27764C8.59586 2.13542 8 2.61105 8 3.25277V19.3836C8 19.8505 8.32309 20.2552 8.77838 20.3587L14.7784 21.7224C15.4041 21.8646 16 21.3889 16 20.7472V4.61641Z" fill="white"/>
<path d="M2 4.51861C2 4.0981 2.26307 3.72252 2.65826 3.57882L5.65826 2.48791C6.31044 2.25075 7 2.73374 7 3.4277V19.4814C7 19.9019 6.73693 20.2775 6.34174 20.4212L3.34174 21.5121C2.68956 21.7493 2 21.2663 2 20.5723V4.51861Z" fill="white"/>
</svg>
