<svg width="16" height="16" viewBox="0 0 16 16" fill="none" xmlns="http://www.w3.org/2000/svg">
<path d="M11.5 2.62294C11.5 2.41269 11.6315 2.2249 11.8291 2.15304L14.3291 1.24395C14.6552 1.12537 15 1.36687 15 1.71385V13.3771C15 13.5873 14.8685 13.7751 14.6709 13.847L12.1709 14.756C11.8448 14.8746 11.5 14.6331 11.5 14.2862V2.62294Z" fill="white"/>
<path d="M10.8 2.67184C10.8 2.43839 10.6385 2.23601 10.4109 2.18428L5.81086 1.13882C5.49798 1.06771 5.20005 1.30553 5.20005 1.62639V13.3282C5.20005 13.5616 5.36159 13.764 5.58924 13.8157L10.1892 14.8612C10.5021 14.9323 10.8 14.6945 10.8 14.3736V2.67184Z" fill="white"/>
<path d="M1 2.62294C1 2.41269 1.13153 2.2249 1.32913 2.15304L3.82913 1.24395C4.15522 1.12537 4.5 1.36687 4.5 1.71385V13.3771C4.5 13.5873 4.36847 13.7751 4.17087 13.847L1.67087 14.756C1.34478 14.8746 1 14.6331 1 14.2862V2.62294Z" fill="white"/>
</svg>
