<svg width="36" height="36" viewBox="0 0 36 36" fill="none" xmlns="http://www.w3.org/2000/svg">
<path d="M25.5 6.77791C25.5 6.14715 25.8946 5.58378 26.4874 5.36822L30.9874 3.73186C31.9657 3.37612 33 4.1006 33 5.14155V29.2221C33 29.8528 32.6054 30.4162 32.0126 30.6318L27.5126 32.2681C26.5343 32.6239 25.5 31.8994 25.5 30.8585V6.77791Z" fill="white"/>
<path d="M24 6.92462C24 6.22427 23.5154 5.61713 22.8324 5.46192L13.8324 3.41646C12.8938 3.20313 12 3.91658 12 4.87916V29.0754C12 29.7757 12.4846 30.3829 13.1676 30.5381L22.1676 32.5835C23.1062 32.7969 24 32.0834 24 31.1208V6.92462Z" fill="white"/>
<path d="M3 6.77791C3 6.14715 3.3946 5.58378 3.98739 5.36822L8.48739 3.73186C9.46566 3.37612 10.5 4.1006 10.5 5.14155V29.2221C10.5 29.8528 10.1054 30.4162 9.51261 30.6318L5.01261 32.2681C4.03434 32.6239 3 31.8994 3 30.8585V6.77791Z" fill="white"/>
</svg>
