<svg width="48" height="48" viewBox="0 0 48 48" fill="none" xmlns="http://www.w3.org/2000/svg">
<path d="M21.1553 5.92871C22.18 3.35712 25.82 3.3571 26.8447 5.92871C27.5804 7.77527 29.8535 8.44281 31.4707 7.28711C33.7232 5.67776 36.7853 7.64575 36.2568 10.3633C35.8774 12.3144 37.4288 14.1047 39.4141 14.0068C42.179 13.8707 43.6908 17.1812 41.7773 19.1816C40.4033 20.6179 40.7408 22.9631 42.4639 23.9541C44.8633 25.3346 44.3447 28.9378 41.6533 29.5859C39.7211 30.0515 38.7376 32.2056 39.6514 33.9707C40.924 36.4293 38.5395 39.1804 35.9248 38.2705C34.0477 37.6175 32.0558 38.8981 31.8701 40.877C31.6116 43.6333 28.118 44.6593 26.4102 42.4805C25.1841 40.916 22.8159 40.916 21.5898 42.4805C19.8821 44.6594 16.3884 43.6334 16.1299 40.877C15.9442 38.8981 13.9523 37.6176 12.0752 38.2705C9.46046 39.1804 7.07595 36.4293 8.34863 33.9707C9.26234 32.2056 8.27881 30.0516 6.34668 29.5859C3.65523 28.9378 3.13664 25.3345 5.53613 23.9541C7.25921 22.9631 7.59675 20.6179 6.22266 19.1816C4.3091 17.1812 5.82096 13.8706 8.58594 14.0068C10.5712 14.1047 12.1226 12.3144 11.7432 10.3633C11.2147 7.64573 14.2768 5.67768 16.5293 7.28711C18.1465 8.44281 20.4196 7.77527 21.1553 5.92871ZM24 15.2881C19.0932 15.2881 15.1155 19.2661 15.1152 24.1729C15.1152 29.0798 19.093 33.0586 24 33.0586C28.9069 33.0586 32.8848 29.0798 32.8848 24.1729C32.8845 19.2661 28.9068 15.2881 24 15.2881Z" fill="white"/>
</svg>
