<svg width="36" height="36" viewBox="0 0 36 36" fill="none" xmlns="http://www.w3.org/2000/svg">
<path d="M15.8662 4.44629C16.6349 2.51783 19.3652 2.51781 20.1338 4.44629C20.6855 5.83108 22.3897 6.33227 23.6025 5.46582C25.2919 4.25856 27.5888 5.73426 27.1924 7.77246C26.9078 9.23578 28.0716 10.5783 29.5605 10.5049C31.6342 10.4028 32.7683 12.8864 31.333 14.3867C30.3026 15.4639 30.5554 17.2216 31.8477 17.9648C33.6476 19 33.2589 21.7033 31.2402 22.1895C29.791 22.5385 29.0532 24.1537 29.7383 25.4775C30.6928 27.3215 28.9044 29.3855 26.9434 28.7031C25.5356 28.2134 24.0417 29.1732 23.9023 30.6572C23.7084 32.7246 21.0884 33.4937 19.8076 31.8594C18.8881 30.6864 17.112 30.6864 16.1924 31.8594C14.9116 33.4937 12.2916 32.7245 12.0977 30.6572C11.9583 29.1731 10.4635 28.2132 9.05566 28.7031C7.09482 29.385 5.30724 27.3213 6.26172 25.4775C6.9468 24.1537 6.20891 22.5385 4.75977 22.1895C2.74108 21.7033 2.35239 19 4.15234 17.9648C5.44449 17.2216 5.69737 15.4639 4.66699 14.3867C3.23164 12.8864 4.36571 10.4028 6.43945 10.5049C7.92838 10.5783 9.09214 9.23578 8.80762 7.77246C8.41123 5.73426 10.7081 4.25856 12.3975 5.46582C13.6103 6.33221 15.3145 5.83106 15.8662 4.44629ZM18 11.4668C14.3198 11.4668 11.3359 14.4497 11.3359 18.1299C11.3359 21.8101 14.3198 24.793 18 24.793C21.6801 24.7929 24.6631 21.81 24.6631 18.1299C24.6631 14.4498 21.6801 11.4669 18 11.4668Z" fill="white"/>
</svg>
