<svg width="16" height="16" viewBox="0 0 16 16" fill="none" xmlns="http://www.w3.org/2000/svg">
<path d="M7.00391 1.6748C7.3626 0.774821 8.63741 0.774812 8.99609 1.6748C9.25355 2.32103 10.0483 2.5547 10.6143 2.15039C11.4026 1.587 12.475 2.27638 12.29 3.22754C12.1575 3.9102 12.6999 4.53606 13.3945 4.50195C14.3623 4.45422 14.8915 5.61332 14.2217 6.31348C13.7409 6.81608 13.8592 7.63648 14.4619 7.9834C15.3019 8.46648 15.1208 9.72822 14.1787 9.95508C13.5026 10.118 13.1581 10.8715 13.4775 11.4893C13.923 12.3498 13.089 13.3126 12.1738 12.9941C11.5168 12.7656 10.8189 13.2146 10.7539 13.9072C10.6631 14.8716 9.44137 15.2303 8.84375 14.4678C8.41462 13.9202 7.58538 13.9202 7.15625 14.4678C6.55862 15.2303 5.33588 14.8717 5.24512 13.9072C5.18015 13.2146 4.48318 12.7656 3.82617 12.9941C2.91102 13.3126 2.077 12.3498 2.52246 11.4893C2.84188 10.8716 2.4974 10.118 1.82129 9.95508C0.879237 9.72822 0.698107 8.46648 1.53809 7.9834C2.14079 7.63647 2.25903 6.81607 1.77832 6.31348C1.10847 5.61332 1.63766 4.45422 2.60547 4.50195C3.30004 4.53603 3.84246 3.91019 3.70996 3.22754C3.52498 2.27638 4.59737 1.587 5.38574 2.15039C5.95175 2.55467 6.74646 2.32102 7.00391 1.6748ZM8 4.95117C6.28257 4.95117 4.89063 6.34313 4.89062 8.06055C4.89062 9.77796 6.28257 11.1699 8 11.1699C9.71739 11.1699 11.1094 9.77794 11.1094 8.06055C11.1094 6.34316 9.71739 4.95122 8 4.95117Z" fill="white"/>
</svg>
