<svg width="24" height="24" viewBox="0 0 24 24" fill="none" xmlns="http://www.w3.org/2000/svg">
<path fill-rule="evenodd" clip-rule="evenodd" d="M10.5771 2.96438C11.0894 1.67856 12.9104 1.67852 13.4228 2.96438C13.7906 3.88765 14.9267 4.22191 15.7353 3.64407C16.8615 2.83925 18.3921 3.82336 18.1278 5.18215C17.9384 6.15755 18.7145 7.05239 19.7069 7.00344C21.0894 6.93546 21.8455 8.59117 20.8886 9.59133C20.2016 10.3094 20.3699 11.4816 21.2314 11.9771C22.4312 12.6671 22.1725 14.4681 20.8271 14.7925C19.861 15.0251 19.3686 16.1024 19.8251 16.9849C20.4614 18.2141 19.27 19.5898 17.9628 19.1353C17.0243 18.8087 16.0276 19.4488 15.9345 20.438C15.8052 21.8162 14.0589 22.3293 13.205 21.2398C12.592 20.4577 11.4079 20.4578 10.7948 21.2398C9.94096 22.3293 8.19461 21.8162 8.06534 20.438C7.97228 19.4488 6.97552 18.8087 6.03702 19.1353C4.72974 19.59 3.53838 18.2141 4.17472 16.9849C4.63112 16.1024 4.13878 15.0251 3.17276 14.7925C1.82723 14.4682 1.56859 12.6671 2.76847 11.9771C3.62976 11.4816 3.79807 10.3094 3.11124 9.59133C2.15432 8.59113 2.91035 6.93532 4.29288 7.00344C5.28542 7.05239 6.06052 6.15761 5.871 5.18215C5.60675 3.82335 7.13832 2.83923 8.26456 3.64407C9.07315 4.22182 10.2092 3.88762 10.5771 2.96438ZM11.9999 7.64407C9.54653 7.64407 7.55768 9.63313 7.55753 12.0865C7.55753 14.5399 9.54644 16.5288 11.9999 16.5288C14.4533 16.5287 16.4423 14.5398 16.4423 12.0865C16.4421 9.63319 14.4532 7.64416 11.9999 7.64407Z" fill="white"/>
</svg>
